<svg xmlns="http://www.w3.org/2000/svg" xmlns:xlink="http://www.w3.org/1999/xlink" width="2240" zoomAndPan="magnify" viewBox="0 0 1680 944.999993" height="1260" preserveAspectRatio="xMidYMid meet" version="1.0"><path stroke-linecap="butt" transform="matrix(0, 0.75, -0.75, 0, 1.500006, 0.00002)" fill="none" stroke-linejoin="miter" d="M -0.0000266667 1.000008 L 1260.000035 1.000008 " stroke="#191919" stroke-width="2" stroke-opacity="1" stroke-miterlimit="4"/><path stroke-linecap="butt" transform="matrix(0, 0.75, -0.75, 0, 59.250003, 0.00002)" fill="none" stroke-linejoin="miter" d="M -0.0000266667 1.000004 L 1260.000035 1.000004 " stroke="#191919" stroke-width="2" stroke-opacity="1" stroke-miterlimit="4"/><path stroke-linecap="butt" transform="matrix(0, 0.75, -0.75, 0, 117, 0.00002)" fill="none" stroke-linejoin="miter" d="M -0.0000266667 1.000001 L 1260.000035 1.000001 " stroke="#191919" stroke-width="2" stroke-opacity="1" stroke-miterlimit="4"/><path stroke-linecap="butt" transform="matrix(0, 0.75, -0.75, 0, 173.54736, 0.00002)" fill="none" stroke-linejoin="miter" d="M -0.0000266667 1.000647 L 1260.000035 1.000647 " stroke="#191919" stroke-width="2" stroke-opacity="1" stroke-miterlimit="4"/><path stroke-linecap="butt" transform="matrix(0, 0.75, -0.75, 0, 230.094722, 0.00002)" fill="none" stroke-linejoin="miter" d="M -0.0000266667 1.001296 L 1260.000035 1.001296 " stroke="#191919" stroke-width="2" stroke-opacity="1" stroke-miterlimit="4"/><path stroke-linecap="butt" transform="matrix(0, 0.75, -0.75, 0, 287.844719, 0.00002)" fill="none" stroke-linejoin="miter" d="M -0.0000266667 1.001292 L 1260.000035 1.001292 " stroke="#191919" stroke-width="2" stroke-opacity="1" stroke-miterlimit="4"/><path stroke-linecap="butt" transform="matrix(0, 0.75, -0.75, 0, 345.594716, 0.00002)" fill="none" stroke-linejoin="miter" d="M -0.0000266667 1.001289 L 1260.000035 1.001289 " stroke="#191919" stroke-width="2" stroke-opacity="1" stroke-miterlimit="4"/><path stroke-linecap="butt" transform="matrix(0, 0.75, -0.75, 0, 396.991775, 0.00002)" fill="none" stroke-linejoin="miter" d="M -0.0000266667 0.99945 L 1260.000035 0.99945 " stroke="#191919" stroke-width="2" stroke-opacity="1" stroke-miterlimit="4"/><path stroke-linecap="butt" transform="matrix(0, 0.75, -0.75, 0, 454.74176, 0.00002)" fill="none" stroke-linejoin="miter" d="M -0.0000266667 0.99943 L 1260.000035 0.99943 " stroke="#191919" stroke-width="2" stroke-opacity="1" stroke-miterlimit="4"/><path stroke-linecap="butt" transform="matrix(0, 0.75, -0.75, 0, 512.491805, 0.00002)" fill="none" stroke-linejoin="miter" d="M -0.0000266667 0.99949 L 1260.000035 0.99949 " stroke="#191919" stroke-width="2" stroke-opacity="1" stroke-miterlimit="4"/><path stroke-linecap="butt" transform="matrix(0, 0.75, -0.75, 0, 570.241802, 0.00002)" fill="none" stroke-linejoin="miter" d="M -0.0000266667 0.999486 L 1260.000035 0.999486 " stroke="#191919" stroke-width="2" stroke-opacity="1" stroke-miterlimit="4"/><path stroke-linecap="butt" transform="matrix(0, 0.75, -0.75, 0, 626.789159, 0.00002)" fill="none" stroke-linejoin="miter" d="M -0.0000266667 1.000129 L 1260.000035 1.000129 " stroke="#191919" stroke-width="2" stroke-opacity="1" stroke-miterlimit="4"/><path stroke-linecap="butt" transform="matrix(0, 0.75, -0.75, 0, 683.336517, 0.00002)" fill="none" stroke-linejoin="miter" d="M -0.0000266667 1.000772 L 1260.000035 1.000772 " stroke="#191919" stroke-width="2" stroke-opacity="1" stroke-miterlimit="4"/><path stroke-linecap="butt" transform="matrix(0, 0.75, -0.75, 0, 741.086514, 0.00002)" fill="none" stroke-linejoin="miter" d="M -0.0000266667 1.000769 L 1260.000035 1.000769 " stroke="#191919" stroke-width="2" stroke-opacity="1" stroke-miterlimit="4"/><path stroke-linecap="butt" transform="matrix(0, 0.75, -0.75, 0, 798.836511, 0.00002)" fill="none" stroke-linejoin="miter" d="M -0.0000266667 1.000765 L 1260.000035 1.000765 " stroke="#191919" stroke-width="2" stroke-opacity="1" stroke-miterlimit="4"/><path stroke-linecap="butt" transform="matrix(-0.688283, -0.297937, 0.297937, -0.688283, 1805.610278, 835.322451)" fill="none" stroke-linejoin="miter" d="M -0.00165752 1.002687 L 2799.070698 0.999035 " stroke="#191919" stroke-width="2" stroke-opacity="1" stroke-miterlimit="4"/><path stroke-linecap="butt" transform="matrix(-0.688283, -0.297937, 0.297937, -0.688283, 1782.567567, 888.554976)" fill="none" stroke-linejoin="miter" d="M -0.00232165 1.000287 L 2799.072102 1.001414 " stroke="#191919" stroke-width="2" stroke-opacity="1" stroke-miterlimit="4"/><path stroke-linecap="butt" transform="matrix(-0.688283, -0.297937, 0.297937, -0.688283, 1759.626256, 941.552854)" fill="none" stroke-linejoin="miter" d="M -0.00126021 1.002419 L 2799.071095 0.998767 " stroke="#191919" stroke-width="2" stroke-opacity="1" stroke-miterlimit="4"/><path stroke-linecap="butt" transform="matrix(-0.688283, -0.297937, 0.297937, -0.688283, 1736.685161, 994.550587)" fill="none" stroke-linejoin="miter" d="M -0.00207975 0.999481 L 2799.072344 1.000608 " stroke="#191919" stroke-width="2" stroke-opacity="1" stroke-miterlimit="4"/><path stroke-linecap="butt" transform="matrix(-0.688283, -0.297937, 0.297937, -0.688283, 1714.221834, 1046.444729)" fill="none" stroke-linejoin="miter" d="M -0.000430169 0.9982 L 2799.069214 1.001397 " stroke="#191919" stroke-width="2" stroke-opacity="1" stroke-miterlimit="4"/><path stroke-linecap="butt" transform="matrix(-0.688283, -0.297937, 0.297937, -0.688283, 1691.758291, 1098.33875)" fill="none" stroke-linejoin="miter" d="M 0.00089155 0.996888 L 2799.070536 1.000084 " stroke="#191919" stroke-width="2" stroke-opacity="1" stroke-miterlimit="4"/><path stroke-linecap="butt" transform="matrix(-0.688283, -0.297937, 0.297937, -0.688283, 1668.817076, 1151.336555)" fill="none" stroke-linejoin="miter" d="M 0.00203232 0.998881 L 2799.069608 0.997297 " stroke="#191919" stroke-width="2" stroke-opacity="1" stroke-miterlimit="4"/><path stroke-linecap="butt" transform="matrix(-0.688283, -0.297937, 0.297937, -0.688283, 1645.875981, 1204.334481)" fill="none" stroke-linejoin="miter" d="M -0.00139625 1.003026 L 2799.070959 0.999374 " stroke="#191919" stroke-width="2" stroke-opacity="1" stroke-miterlimit="4"/><path stroke-linecap="butt" transform="matrix(-0.688283, -0.297937, 0.297937, -0.688283, 1625.45851, 1251.501991)" fill="none" stroke-linejoin="miter" d="M -0.00103035 1.002201 L 2799.071325 0.998548 " stroke="#191919" stroke-width="2" stroke-opacity="1" stroke-miterlimit="4"/><path stroke-linecap="butt" transform="matrix(-0.688283, -0.297937, 0.297937, -0.688283, 1602.51744, 1304.499796)" fill="none" stroke-linejoin="miter" d="M -0.00178238 0.999338 L 2799.067862 1.002534 " stroke="#191919" stroke-width="2" stroke-opacity="1" stroke-miterlimit="4"/><path stroke-linecap="butt" transform="matrix(-0.688283, -0.297937, 0.297937, -0.688283, 1579.576345, 1357.497601)" fill="none" stroke-linejoin="miter" d="M -0.000494776 1.001267 L 2799.067081 0.999684 " stroke="#191919" stroke-width="2" stroke-opacity="1" stroke-miterlimit="4"/><path stroke-linecap="butt" transform="matrix(-0.688283, -0.297937, 0.297937, -0.688283, 1556.63501, 1410.495311)" fill="none" stroke-linejoin="miter" d="M -0.00162069 0.998427 L 2799.068024 1.001623 " stroke="#191919" stroke-width="2" stroke-opacity="1" stroke-miterlimit="4"/><path stroke-linecap="butt" transform="matrix(-0.688283, -0.297937, 0.297937, -0.688283, 1534.171563, 1462.389452)" fill="none" stroke-linejoin="miter" d="M 0.00195106 1.001989 L 2799.069526 1.000406 " stroke="#191919" stroke-width="2" stroke-opacity="1" stroke-miterlimit="4"/><path stroke-linecap="butt" transform="matrix(-0.688283, -0.297937, 0.297937, -0.688283, 1511.70814, 1514.28357)" fill="none" stroke-linejoin="miter" d="M -0.00130928 1.0028 L 2799.071046 0.999147 " stroke="#191919" stroke-width="2" stroke-opacity="1" stroke-miterlimit="4"/><path stroke-linecap="butt" transform="matrix(-0.688283, -0.297937, 0.297937, -0.688283, 1488.767045, 1567.281279)" fill="none" stroke-linejoin="miter" d="M -0.00214153 0.999832 L 2799.072283 1.000959 " stroke="#191919" stroke-width="2" stroke-opacity="1" stroke-miterlimit="4"/><path stroke-linecap="butt" transform="matrix(0, 0.75, -0.75, 0, 857.82594, 0.00002)" fill="none" stroke-linejoin="miter" d="M -0.0000266667 1.002295 L 1260.000035 1.002295 " stroke="#191919" stroke-width="2" stroke-opacity="1" stroke-miterlimit="4"/><path stroke-linecap="butt" transform="matrix(0, 0.75, -0.75, 0, 915.575937, 0.00002)" fill="none" stroke-linejoin="miter" d="M -0.0000266667 1.002291 L 1260.000035 1.002291 " stroke="#191919" stroke-width="2" stroke-opacity="1" stroke-miterlimit="4"/><path stroke-linecap="butt" transform="matrix(0, 0.75, -0.75, 0, 973.325934, 0.00002)" fill="none" stroke-linejoin="miter" d="M -0.0000266667 1.002288 L 1260.000035 1.002288 " stroke="#191919" stroke-width="2" stroke-opacity="1" stroke-miterlimit="4"/><path stroke-linecap="butt" transform="matrix(0, 0.75, -0.75, 0, 1029.873244, 0.00002)" fill="none" stroke-linejoin="miter" d="M -0.0000266667 0.997658 L 1260.000035 0.997658 " stroke="#191919" stroke-width="2" stroke-opacity="1" stroke-miterlimit="4"/><path stroke-linecap="butt" transform="matrix(0, 0.75, -0.75, 0, 1086.420649, 0.00002)" fill="none" stroke-linejoin="miter" d="M -0.0000266667 0.998365 L 1260.000035 0.998365 " stroke="#191919" stroke-width="2" stroke-opacity="1" stroke-miterlimit="4"/><path stroke-linecap="butt" transform="matrix(0, 0.75, -0.75, 0, 1144.170646, 0.00002)" fill="none" stroke-linejoin="miter" d="M -0.0000266667 0.998361 L 1260.000035 0.998361 " stroke="#191919" stroke-width="2" stroke-opacity="1" stroke-miterlimit="4"/><path stroke-linecap="butt" transform="matrix(0, 0.75, -0.75, 0, 1201.920643, 0.00002)" fill="none" stroke-linejoin="miter" d="M -0.0000266667 0.998358 L 1260.000035 0.998358 " stroke="#191919" stroke-width="2" stroke-opacity="1" stroke-miterlimit="4"/><path stroke-linecap="butt" transform="matrix(0, 0.75, -0.75, 0, 1253.317673, 0.00002)" fill="none" stroke-linejoin="miter" d="M -0.0000266667 1.001689 L 1260.000035 1.001689 " stroke="#191919" stroke-width="2" stroke-opacity="1" stroke-miterlimit="4"/><path stroke-linecap="butt" transform="matrix(0, 0.75, -0.75, 0, 1311.06767, 0.00002)" fill="none" stroke-linejoin="miter" d="M -0.0000266667 1.001685 L 1260.000035 1.001685 " stroke="#191919" stroke-width="2" stroke-opacity="1" stroke-miterlimit="4"/><path stroke-linecap="butt" transform="matrix(0, 0.75, -0.75, 0, 1368.817667, 0.00002)" fill="none" stroke-linejoin="miter" d="M -0.0000266667 1.001681 L 1260.000035 1.001681 " stroke="#191919" stroke-width="2" stroke-opacity="1" stroke-miterlimit="4"/><path stroke-linecap="butt" transform="matrix(0, 0.75, -0.75, 0, 1426.567664, 0.00002)" fill="none" stroke-linejoin="miter" d="M -0.0000266667 1.001677 L 1260.000035 1.001677 " stroke="#191919" stroke-width="2" stroke-opacity="1" stroke-miterlimit="4"/><path stroke-linecap="butt" transform="matrix(0, 0.75, -0.75, 0, 1483.115093, 0.00002)" fill="none" stroke-linejoin="miter" d="M -0.0000266667 1.002416 L 1260.000035 1.002416 " stroke="#191919" stroke-width="2" stroke-opacity="1" stroke-miterlimit="4"/><path stroke-linecap="butt" transform="matrix(0, 0.75, -0.75, 0, 1539.662403, 0.00002)" fill="none" stroke-linejoin="miter" d="M -0.0000266667 0.997787 L 1260.000035 0.997787 " stroke="#191919" stroke-width="2" stroke-opacity="1" stroke-miterlimit="4"/><path stroke-linecap="butt" transform="matrix(0, 0.75, -0.75, 0, 1597.4124, 0.00002)" fill="none" stroke-linejoin="miter" d="M -0.0000266667 0.997783 L 1260.000035 0.997783 " stroke="#191919" stroke-width="2" stroke-opacity="1" stroke-miterlimit="4"/><path stroke-linecap="butt" transform="matrix(0, 0.75, -0.75, 0, 1655.162397, 0.00002)" fill="none" stroke-linejoin="miter" d="M -0.0000266667 0.997779 L 1260.000035 0.997779 " stroke="#191919" stroke-width="2" stroke-opacity="1" stroke-miterlimit="4"/><path stroke-linecap="butt" transform="matrix(-0.688283, -0.297937, 0.297937, -0.688283, 2111.077175, 223.936533)" fill="none" stroke-linejoin="miter" d="M -0.000790002 0.9978 L 2799.068854 1.000996 " stroke="#191919" stroke-width="2" stroke-opacity="1" stroke-miterlimit="4"/><path stroke-linecap="butt" transform="matrix(-0.688283, -0.297937, 0.297937, -0.688283, 2088.613968, 275.830641)" fill="none" stroke-linejoin="miter" d="M 0.00305762 1.001194 L 2799.070633 0.999611 " stroke="#191919" stroke-width="2" stroke-opacity="1" stroke-miterlimit="4"/><path stroke-linecap="butt" transform="matrix(-0.688283, -0.297937, 0.297937, -0.688283, 2065.672873, 328.828451)" fill="none" stroke-linejoin="miter" d="M -0.00250098 1.000419 L 2799.071923 1.001546 " stroke="#191919" stroke-width="2" stroke-opacity="1" stroke-miterlimit="4"/><path stroke-linecap="butt" transform="matrix(-0.688283, -0.297937, 0.297937, -0.688283, 2042.731538, 381.826261)" fill="none" stroke-linejoin="miter" d="M -0.0015045 1.002481 L 2799.070851 0.998829 " stroke="#191919" stroke-width="2" stroke-opacity="1" stroke-miterlimit="4"/><path stroke-linecap="butt" transform="matrix(-0.688283, -0.297937, 0.297937, -0.688283, 2022.314211, 428.993879)" fill="none" stroke-linejoin="miter" d="M -0.000905187 1.001712 L 2799.07145 0.998059 " stroke="#191919" stroke-width="2" stroke-opacity="1" stroke-miterlimit="4"/><path stroke-linecap="butt" transform="matrix(-0.688283, -0.297937, 0.297937, -0.688283, 1999.372876, 481.991636)" fill="none" stroke-linejoin="miter" d="M -0.00200568 0.99893 L 2799.072418 1.000057 " stroke="#191919" stroke-width="2" stroke-opacity="1" stroke-miterlimit="4"/><path stroke-linecap="butt" transform="matrix(-0.688283, -0.297937, 0.297937, -0.688283, 1976.431781, 534.989418)" fill="none" stroke-linejoin="miter" d="M -0.000730786 1.00083 L 2799.066845 0.999247 " stroke="#191919" stroke-width="2" stroke-opacity="1" stroke-miterlimit="4"/><path stroke-linecap="butt" transform="matrix(-0.688283, -0.297937, 0.297937, -0.688283, 1953.490686, 587.987151)" fill="none" stroke-linejoin="miter" d="M -0.00155032 0.997892 L 2799.068094 1.001088 " stroke="#191919" stroke-width="2" stroke-opacity="1" stroke-miterlimit="4"/><path stroke-linecap="butt" transform="matrix(-0.688283, -0.297937, 0.297937, -0.688283, 1931.027023, 639.881293)" fill="none" stroke-linejoin="miter" d="M 0.00175713 1.001569 L 2799.069332 0.999986 " stroke="#191919" stroke-width="2" stroke-opacity="1" stroke-miterlimit="4"/><path stroke-linecap="butt" transform="matrix(-0.688283, -0.297937, 0.297937, -0.688283, 1908.563697, 691.775386)" fill="none" stroke-linejoin="miter" d="M -0.00139846 1.002299 L 2799.070957 0.998646 " stroke="#191919" stroke-width="2" stroke-opacity="1" stroke-miterlimit="4"/><path stroke-linecap="butt" transform="matrix(-0.688283, -0.297937, 0.297937, -0.688283, 1885.622602, 744.773239)" fill="none" stroke-linejoin="miter" d="M -0.00215443 0.999507 L 2799.07227 1.000635 " stroke="#191919" stroke-width="2" stroke-opacity="1" stroke-miterlimit="4"/><path stroke-linecap="butt" transform="matrix(-0.688283, -0.297937, 0.297937, -0.688283, 1862.681291, 797.770997)" fill="none" stroke-linejoin="miter" d="M -0.00115655 1.001493 L 2799.071198 0.99784 " stroke="#191919" stroke-width="2" stroke-opacity="1" stroke-miterlimit="4"/></svg>