<svg xmlns="http://www.w3.org/2000/svg" xmlns:xlink="http://www.w3.org/1999/xlink" width="2240" zoomAndPan="magnify" viewBox="0 0 1680 944.999993" height="1260" preserveAspectRatio="xMidYMid meet" version="1.0"><defs><filter x="0%" y="0%" width="100%" height="100%" id="2f55de301d"><feColorMatrix values="0 0 0 0 1 0 0 0 0 1 0 0 0 0 1 0 0 0 1 0" color-interpolation-filters="sRGB"/></filter><mask id="8472664a00"><g filter="url(#2f55de301d)"><rect x="-168" width="2016" fill="#000000" y="-94.499999" height="1133.999992" fill-opacity="0.8"/></g></mask><clipPath id="d3004d53c6"><path d="M 37 31 L 119 31 L 119 130 L 37 130 Z M 37 31 " clip-rule="nonzero"/></clipPath><clipPath id="0582aaa50c"><path d="M 0.574219 61.699219 L 81.476562 0.820312 L 154.980469 98.503906 L 74.078125 159.382812 Z M 0.574219 61.699219 " clip-rule="nonzero"/></clipPath><clipPath id="bbd069eed6"><path d="M 0.574219 61.699219 L 81.476562 0.820312 L 154.980469 98.503906 L 74.078125 159.382812 Z M 0.574219 61.699219 " clip-rule="nonzero"/></clipPath><clipPath id="8e90903121"><path d="M 0.59375 61.683594 L 81.378906 0.894531 L 155.101562 98.867188 L 74.316406 159.65625 Z M 0.59375 61.683594 " clip-rule="nonzero"/></clipPath><clipPath id="f4befa2b60"><rect x="0" width="156" y="0" height="160"/></clipPath><clipPath id="44bd6778f9"><path d="M 87 807 L 167 807 L 167 894 L 87 894 Z M 87 807 " clip-rule="nonzero"/></clipPath><clipPath id="23989130c3"><path d="M 131.058594 774.859375 L 202.546875 840.050781 L 123.714844 926.503906 L 52.222656 861.316406 Z M 131.058594 774.859375 " clip-rule="nonzero"/></clipPath><clipPath id="28b1063fb0"><path d="M 131.058594 774.859375 L 202.546875 840.050781 L 123.714844 926.503906 L 52.222656 861.316406 Z M 131.058594 774.859375 " clip-rule="nonzero"/></clipPath><clipPath id="10a92721ae"><path d="M 131.074219 774.878906 L 202.261719 839.789062 L 123.539062 926.121094 L 52.351562 861.210938 Z M 131.074219 774.878906 " clip-rule="nonzero"/></clipPath><mask id="875c01bdcb"><g filter="url(#2f55de301d)"><rect x="-168" width="2016" fill="#000000" y="-94.499999" height="1133.999992" fill-opacity="0.7"/></g></mask><clipPath id="4e0176455e"><path d="M 29 35 L 113 35 L 113 108 L 29 108 Z M 29 35 " clip-rule="nonzero"/></clipPath><clipPath id="f777c7b406"><path d="M 83.308594 1.113281 L 142.5625 69.851562 L 59.625 141.347656 L 0.371094 72.609375 Z M 83.308594 1.113281 " clip-rule="nonzero"/></clipPath><clipPath id="d9df4c4a5e"><path d="M 83.308594 1.113281 L 142.5625 69.851562 L 59.625 141.347656 L 0.371094 72.609375 Z M 83.308594 1.113281 " clip-rule="nonzero"/></clipPath><clipPath id="ce61044da4"><path d="M 83.324219 1.132812 L 142.421875 69.691406 L 59.28125 141.359375 L 0.183594 72.804688 Z M 83.324219 1.132812 " clip-rule="nonzero"/></clipPath><clipPath id="dfc5379155"><rect x="0" width="143" y="0" height="142"/></clipPath><mask id="162ea58de6"><g filter="url(#2f55de301d)"><rect x="-168" width="2016" fill="#000000" y="-94.499999" height="1133.999992" fill-opacity="0.7"/></g></mask><clipPath id="baf6f15741"><path d="M 30 34 L 113 34 L 113 108 L 30 108 Z M 30 34 " clip-rule="nonzero"/></clipPath><clipPath id="1030fbd502"><path d="M 0.65625 67.800781 L 60.921875 0.957031 L 142.25 74.277344 L 81.984375 141.125 Z M 0.65625 67.800781 " clip-rule="nonzero"/></clipPath><clipPath id="cbac4d49b7"><path d="M 0.65625 67.800781 L 60.921875 0.957031 L 142.25 74.277344 L 81.984375 141.125 Z M 0.65625 67.800781 " clip-rule="nonzero"/></clipPath><clipPath id="8eb4a9e9a5"><path d="M 0.675781 67.78125 L 61.140625 0.714844 L 142.476562 74.046875 L 82.011719 141.113281 Z M 0.675781 67.78125 " clip-rule="nonzero"/></clipPath><clipPath id="0ea73028ec"><rect x="0" width="143" y="0" height="142"/></clipPath><mask id="53e0180313"><g filter="url(#2f55de301d)"><rect x="-168" width="2016" fill="#000000" y="-94.499999" height="1133.999992" fill-opacity="0.15"/></g></mask><clipPath id="448b50dacc"><path d="M 29 33 L 110 33 L 110 103 L 29 103 Z M 29 33 " clip-rule="nonzero"/></clipPath><clipPath id="be4ffee01b"><path d="M 138.34375 69.210938 L 81.417969 135.992188 L 0.367188 66.90625 L 57.292969 0.125 Z M 138.34375 69.210938 " clip-rule="nonzero"/></clipPath><clipPath id="d20eb201c0"><path d="M 138.34375 69.210938 L 81.417969 135.992188 L 0.367188 66.90625 L 57.292969 0.125 Z M 138.34375 69.210938 " clip-rule="nonzero"/></clipPath><clipPath id="cf5ce71db1"><path d="M 138.328125 69.226562 L 81.53125 135.859375 L 0.722656 66.980469 L 57.519531 0.347656 Z M 138.328125 69.226562 " clip-rule="nonzero"/></clipPath><clipPath id="2f6b3a6228"><rect x="0" width="139" y="0" height="137"/></clipPath><mask id="f0d6c23165"><g filter="url(#2f55de301d)"><rect x="-168" width="2016" fill="#000000" y="-94.499999" height="1133.999992" fill-opacity="0.4"/></g></mask><clipPath id="a34a7d24e0"><path d="M 28 35 L 115 35 L 115 107 L 28 107 Z M 28 35 " clip-rule="nonzero"/></clipPath><clipPath id="c37465c2b1"><path d="M 56.738281 140.082031 L 0.386719 68.949219 L 86.21875 0.957031 L 142.570312 72.089844 Z M 56.738281 140.082031 " clip-rule="nonzero"/></clipPath><clipPath id="c23e35828e"><path d="M 56.738281 140.082031 L 0.386719 68.949219 L 86.21875 0.957031 L 142.570312 72.089844 Z M 56.738281 140.082031 " clip-rule="nonzero"/></clipPath><clipPath id="4ad907a002"><path d="M 56.722656 140.066406 L 0.605469 69.222656 L 86.519531 1.164062 L 142.636719 72.007812 Z M 56.722656 140.066406 " clip-rule="nonzero"/></clipPath><clipPath id="190724f520"><rect x="0" width="143" y="0" height="141"/></clipPath><clipPath id="2c1789a98b"><path d="M 273 76 L 358 76 L 358 149 L 273 149 Z M 273 76 " clip-rule="nonzero"/></clipPath><clipPath id="e90521dae7"><path d="M 386.742188 113.964844 L 327.703125 182.886719 L 244.542969 111.648438 L 303.582031 42.730469 Z M 386.742188 113.964844 " clip-rule="nonzero"/></clipPath><clipPath id="90432c58ac"><path d="M 386.742188 113.964844 L 327.703125 182.886719 L 244.542969 111.648438 L 303.582031 42.730469 Z M 386.742188 113.964844 " clip-rule="nonzero"/></clipPath><clipPath id="fc4e5a7d1c"><path d="M 386.726562 113.984375 L 327.839844 182.726562 L 244.476562 111.3125 L 303.359375 42.574219 Z M 386.726562 113.984375 " clip-rule="nonzero"/></clipPath><mask id="65414dd776"><g filter="url(#2f55de301d)"><rect x="-168" width="2016" fill="#000000" y="-94.499999" height="1133.999992" fill-opacity="0.7"/></g></mask><clipPath id="4406ffef4e"><path d="M 36 33 L 116 33 L 116 120 L 36 120 Z M 36 33 " clip-rule="nonzero"/></clipPath><clipPath id="60c2b34a6c"><path d="M 79.75 0.859375 L 151.238281 66.050781 L 72.40625 152.503906 L 0.914062 87.316406 Z M 79.75 0.859375 " clip-rule="nonzero"/></clipPath><clipPath id="d3921893dd"><path d="M 79.75 0.859375 L 151.238281 66.050781 L 72.40625 152.503906 L 0.914062 87.316406 Z M 79.75 0.859375 " clip-rule="nonzero"/></clipPath><clipPath id="5b204ee8c8"><path d="M 79.765625 0.878906 L 150.953125 65.789062 L 72.230469 152.121094 L 1.042969 87.210938 Z M 79.765625 0.878906 " clip-rule="nonzero"/></clipPath><clipPath id="a886f3970d"><rect x="0" width="152" y="0" height="153"/></clipPath><mask id="c1633124d0"><g filter="url(#2f55de301d)"><rect x="-168" width="2016" fill="#000000" y="-94.499999" height="1133.999992" fill-opacity="0.25"/></g></mask><clipPath id="72d166c8a6"><path d="M 30 35 L 114 35 L 114 108 L 30 108 Z M 30 35 " clip-rule="nonzero"/></clipPath><clipPath id="6f2b0d7f2c"><path d="M 83.777344 1.066406 L 143.03125 69.804688 L 60.089844 141.300781 L 0.839844 72.5625 Z M 83.777344 1.066406 " clip-rule="nonzero"/></clipPath><clipPath id="fb8c0670d2"><path d="M 83.777344 1.066406 L 143.03125 69.804688 L 60.089844 141.300781 L 0.839844 72.5625 Z M 83.777344 1.066406 " clip-rule="nonzero"/></clipPath><clipPath id="1745115a1e"><path d="M 83.792969 1.085938 L 142.890625 69.644531 L 59.75 141.3125 L 0.652344 72.757812 Z M 83.792969 1.085938 " clip-rule="nonzero"/></clipPath><clipPath id="a665387fa0"><rect x="0" width="144" y="0" height="142"/></clipPath></defs><g mask="url(#8472664a00)"><g transform="matrix(1, 0, 0, 1, 1504, 89)"><g clip-path="url(#f4befa2b60)"><g clip-path="url(#d3004d53c6)"><g clip-path="url(#0582aaa50c)"><g clip-path="url(#bbd069eed6)"><g clip-path="url(#8e90903121)"><path fill="#191919" d="M 37.457031 110.667969 L 114.710938 129.261719 L 118.242188 49.878906 L 40.984375 31.289062 L 37.457031 110.667969 " fill-opacity="1" fill-rule="nonzero"/></g></g></g></g></g></g></g><g clip-path="url(#44bd6778f9)"><g clip-path="url(#23989130c3)"><g clip-path="url(#28b1063fb0)"><g clip-path="url(#10a92721ae)"><path fill="#191919" d="M 91.714844 818.042969 L 87.945312 893.664062 L 162.902344 882.953125 L 166.667969 807.332031 L 91.714844 818.042969 " fill-opacity="1" fill-rule="nonzero"/></g></g></g></g><g mask="url(#875c01bdcb)"><g transform="matrix(1, 0, 0, 1, 1140, 302)"><g clip-path="url(#dfc5379155)"><g clip-path="url(#4e0176455e)"><g clip-path="url(#f777c7b406)"><g clip-path="url(#d9df4c4a5e)"><g clip-path="url(#ce61044da4)"><path fill="#191919" d="M 41.753906 36.96875 L 29.730469 107.082031 L 100.851562 105.523438 L 112.875 35.410156 L 41.753906 36.96875 " fill-opacity="1" fill-rule="nonzero"/></g></g></g></g></g></g></g><g mask="url(#162ea58de6)"><g transform="matrix(1, 0, 0, 1, 1443, 785)"><g clip-path="url(#0ea73028ec)"><g clip-path="url(#baf6f15741)"><g clip-path="url(#1030fbd502)"><g clip-path="url(#cbac4d49b7)"><g clip-path="url(#8eb4a9e9a5)"><path fill="#191919" d="M 41.34375 104.445312 L 112.242188 107.578125 L 101.808594 37.378906 L 30.90625 34.25 L 41.34375 104.445312 " fill-opacity="1" fill-rule="nonzero"/></g></g></g></g></g></g></g><g mask="url(#53e0180313)"><g transform="matrix(1, 0, 0, 1, 360, 626)"><g clip-path="url(#2f6b3a6228)"><g clip-path="url(#448b50dacc)"><g clip-path="url(#be4ffee01b)"><g clip-path="url(#d20eb201c0)"><g clip-path="url(#cf5ce71db1)"><path fill="#191919" d="M 97.925781 34.789062 L 29.121094 33.664062 L 41.128906 101.421875 L 109.929688 102.542969 L 97.925781 34.789062 " fill-opacity="1" fill-rule="nonzero"/></g></g></g></g></g></g></g><g mask="url(#f0d6c23165)"><g transform="matrix(1, 0, 0, 1, 1406, 595)"><g clip-path="url(#190724f520)"><g clip-path="url(#a34a7d24e0)"><g clip-path="url(#c37465c2b1)"><g clip-path="url(#c23e35828e)"><g clip-path="url(#4ad907a002)"><path fill="#191919" d="M 99.679688 106.035156 L 114.578125 36.585938 L 43.558594 35.195312 L 28.664062 104.644531 L 99.679688 106.035156 " fill-opacity="1" fill-rule="nonzero"/></g></g></g></g></g></g></g><g clip-path="url(#2c1789a98b)"><g clip-path="url(#e90521dae7)"><g clip-path="url(#90432c58ac)"><g clip-path="url(#fc4e5a7d1c)"><path fill="#191919" d="M 345.042969 78.28125 L 273.917969 76.945312 L 286.160156 147.019531 L 357.285156 148.355469 L 345.042969 78.28125 " fill-opacity="1" fill-rule="nonzero"/></g></g></g></g><g mask="url(#65414dd776)"><g transform="matrix(1, 0, 0, 1, 764, 396)"><g clip-path="url(#a886f3970d)"><g clip-path="url(#4406ffef4e)"><g clip-path="url(#60c2b34a6c)"><g clip-path="url(#d3921893dd)"><g clip-path="url(#5b204ee8c8)"><path fill="#191919" d="M 40.40625 44.042969 L 36.636719 119.664062 L 111.59375 108.953125 L 115.359375 33.332031 L 40.40625 44.042969 " fill-opacity="1" fill-rule="nonzero"/></g></g></g></g></g></g></g><g mask="url(#c1633124d0)"><g transform="matrix(1, 0, 0, 1, 1150, 677)"><g clip-path="url(#a665387fa0)"><g clip-path="url(#72d166c8a6)"><g clip-path="url(#6f2b0d7f2c)"><g clip-path="url(#fb8c0670d2)"><g clip-path="url(#1745115a1e)"><path fill="#191919" d="M 42.222656 36.921875 L 30.199219 107.035156 L 101.320312 105.476562 L 113.34375 35.363281 L 42.222656 36.921875 " fill-opacity="1" fill-rule="nonzero"/></g></g></g></g></g></g></g></svg>