<svg xmlns="http://www.w3.org/2000/svg" xmlns:xlink="http://www.w3.org/1999/xlink" width="2240" zoomAndPan="magnify" viewBox="0 0 1680 944.999993" height="1260" preserveAspectRatio="xMidYMid meet" version="1.0"><defs><filter x="0%" y="0%" width="100%" height="100%" id="ab1c9f83f1"><feColorMatrix values="0 0 0 0 1 0 0 0 0 1 0 0 0 0 1 0 0 0 1 0" color-interpolation-filters="sRGB"/></filter><mask id="dc40b3f1ed"><g filter="url(#ab1c9f83f1)"><rect x="-168" width="2016" fill="#000000" y="-94.499999" height="1133.999992" fill-opacity="0.8"/></g></mask><clipPath id="249bbdd53d"><path d="M 37 31 L 119 31 L 119 130 L 37 130 Z M 37 31 " clip-rule="nonzero"/></clipPath><clipPath id="11e0d9d0dc"><path d="M 0.574219 61.699219 L 81.476562 0.820312 L 154.980469 98.503906 L 74.078125 159.382812 Z M 0.574219 61.699219 " clip-rule="nonzero"/></clipPath><clipPath id="a4e783c99a"><path d="M 0.574219 61.699219 L 81.476562 0.820312 L 154.980469 98.503906 L 74.078125 159.382812 Z M 0.574219 61.699219 " clip-rule="nonzero"/></clipPath><clipPath id="0aec5688a1"><path d="M 0.59375 61.683594 L 81.378906 0.894531 L 155.101562 98.867188 L 74.316406 159.65625 Z M 0.59375 61.683594 " clip-rule="nonzero"/></clipPath><clipPath id="6446b3d2ed"><rect x="0" width="156" y="0" height="160"/></clipPath><clipPath id="ad03b9e347"><path d="M 87 807 L 167 807 L 167 894 L 87 894 Z M 87 807 " clip-rule="nonzero"/></clipPath><clipPath id="562a0ecef7"><path d="M 131.058594 774.859375 L 202.546875 840.050781 L 123.714844 926.503906 L 52.222656 861.316406 Z M 131.058594 774.859375 " clip-rule="nonzero"/></clipPath><clipPath id="bd89a86947"><path d="M 131.058594 774.859375 L 202.546875 840.050781 L 123.714844 926.503906 L 52.222656 861.316406 Z M 131.058594 774.859375 " clip-rule="nonzero"/></clipPath><clipPath id="782d09559e"><path d="M 131.074219 774.878906 L 202.261719 839.789062 L 123.539062 926.121094 L 52.351562 861.210938 Z M 131.074219 774.878906 " clip-rule="nonzero"/></clipPath><mask id="9bdb379c89"><g filter="url(#ab1c9f83f1)"><rect x="-168" width="2016" fill="#000000" y="-94.499999" height="1133.999992" fill-opacity="0.6"/></g></mask><clipPath id="e08401e49c"><path d="M 29 35 L 113 35 L 113 108 L 29 108 Z M 29 35 " clip-rule="nonzero"/></clipPath><clipPath id="4b197d0d29"><path d="M 83.308594 1.113281 L 142.5625 69.851562 L 59.625 141.347656 L 0.371094 72.609375 Z M 83.308594 1.113281 " clip-rule="nonzero"/></clipPath><clipPath id="cdca461a98"><path d="M 83.308594 1.113281 L 142.5625 69.851562 L 59.625 141.347656 L 0.371094 72.609375 Z M 83.308594 1.113281 " clip-rule="nonzero"/></clipPath><clipPath id="26eaa862ea"><path d="M 83.324219 1.132812 L 142.421875 69.691406 L 59.28125 141.359375 L 0.183594 72.804688 Z M 83.324219 1.132812 " clip-rule="nonzero"/></clipPath><clipPath id="f3129f8c56"><rect x="0" width="143" y="0" height="142"/></clipPath><mask id="4817d02f56"><g filter="url(#ab1c9f83f1)"><rect x="-168" width="2016" fill="#000000" y="-94.499999" height="1133.999992" fill-opacity="0.4"/></g></mask><clipPath id="88cd0385ed"><path d="M 31 34 L 93 34 L 93 95 L 31 95 Z M 31 34 " clip-rule="nonzero"/></clipPath><clipPath id="03a4372a77"><path d="M 1.214844 67.605469 L 61.480469 0.761719 L 142.808594 74.082031 L 82.542969 140.925781 Z M 1.214844 67.605469 " clip-rule="nonzero"/></clipPath><clipPath id="31bfc32614"><path d="M 1.214844 67.605469 L 61.480469 0.761719 L 142.808594 74.082031 L 82.542969 140.925781 Z M 1.214844 67.605469 " clip-rule="nonzero"/></clipPath><clipPath id="eb38f970b5"><path d="M 1.234375 67.585938 L 61.699219 0.519531 L 143.035156 73.847656 L 82.570312 140.914062 Z M 1.234375 67.585938 " clip-rule="nonzero"/></clipPath><clipPath id="4a3389b743"><rect x="0" width="93" y="0" height="95"/></clipPath><mask id="7a5795f135"><g filter="url(#ab1c9f83f1)"><rect x="-168" width="2016" fill="#000000" y="-94.499999" height="1133.999992" fill-opacity="0.15"/></g></mask><clipPath id="9b65420ef8"><path d="M 29 33 L 110 33 L 110 103 L 29 103 Z M 29 33 " clip-rule="nonzero"/></clipPath><clipPath id="85b4df46bc"><path d="M 138.34375 69.210938 L 81.417969 135.992188 L 0.367188 66.90625 L 57.292969 0.125 Z M 138.34375 69.210938 " clip-rule="nonzero"/></clipPath><clipPath id="0610fed863"><path d="M 138.34375 69.210938 L 81.417969 135.992188 L 0.367188 66.90625 L 57.292969 0.125 Z M 138.34375 69.210938 " clip-rule="nonzero"/></clipPath><clipPath id="6a541d461a"><path d="M 138.328125 69.226562 L 81.53125 135.859375 L 0.722656 66.980469 L 57.519531 0.347656 Z M 138.328125 69.226562 " clip-rule="nonzero"/></clipPath><clipPath id="d1d83ff8f1"><rect x="0" width="139" y="0" height="137"/></clipPath><mask id="faecf12e5c"><g filter="url(#ab1c9f83f1)"><rect x="-168" width="2016" fill="#000000" y="-94.499999" height="1133.999992" fill-opacity="0.25"/></g></mask><clipPath id="da7d8a3529"><path d="M 28 35 L 115 35 L 115 107 L 28 107 Z M 28 35 " clip-rule="nonzero"/></clipPath><clipPath id="5ff69e4569"><path d="M 56.738281 140.082031 L 0.386719 68.949219 L 86.21875 0.957031 L 142.570312 72.089844 Z M 56.738281 140.082031 " clip-rule="nonzero"/></clipPath><clipPath id="342cea0ba3"><path d="M 56.738281 140.082031 L 0.386719 68.949219 L 86.21875 0.957031 L 142.570312 72.089844 Z M 56.738281 140.082031 " clip-rule="nonzero"/></clipPath><clipPath id="bfb2efab49"><path d="M 56.722656 140.066406 L 0.605469 69.222656 L 86.519531 1.164062 L 142.636719 72.007812 Z M 56.722656 140.066406 " clip-rule="nonzero"/></clipPath><clipPath id="f6133fe313"><rect x="0" width="143" y="0" height="141"/></clipPath><clipPath id="452c6c02d2"><path d="M 273 76 L 358 76 L 358 149 L 273 149 Z M 273 76 " clip-rule="nonzero"/></clipPath><clipPath id="8fbec46fbd"><path d="M 386.742188 113.964844 L 327.703125 182.886719 L 244.542969 111.648438 L 303.582031 42.730469 Z M 386.742188 113.964844 " clip-rule="nonzero"/></clipPath><clipPath id="aa62fb626c"><path d="M 386.742188 113.964844 L 327.703125 182.886719 L 244.542969 111.648438 L 303.582031 42.730469 Z M 386.742188 113.964844 " clip-rule="nonzero"/></clipPath><clipPath id="36582ec4d8"><path d="M 386.726562 113.984375 L 327.839844 182.726562 L 244.476562 111.3125 L 303.359375 42.574219 Z M 386.726562 113.984375 " clip-rule="nonzero"/></clipPath><mask id="013016cd57"><g filter="url(#ab1c9f83f1)"><rect x="-168" width="2016" fill="#000000" y="-94.499999" height="1133.999992" fill-opacity="0.2"/></g></mask><clipPath id="7d5b06a178"><path d="M 36 32 L 115 32 L 115 76 L 36 76 Z M 36 32 " clip-rule="nonzero"/></clipPath><clipPath id="3f85b4ac18"><path d="M 79.304688 0.359375 L 150.792969 65.550781 L 71.960938 152.003906 L 0.46875 86.816406 Z M 79.304688 0.359375 " clip-rule="nonzero"/></clipPath><clipPath id="21a4487809"><path d="M 79.304688 0.359375 L 150.792969 65.550781 L 71.960938 152.003906 L 0.46875 86.816406 Z M 79.304688 0.359375 " clip-rule="nonzero"/></clipPath><clipPath id="6ee37d8c0d"><path d="M 79.320312 0.378906 L 150.507812 65.289062 L 71.785156 151.621094 L 0.597656 86.710938 Z M 79.320312 0.378906 " clip-rule="nonzero"/></clipPath><clipPath id="8a46059d78"><rect x="0" width="151" y="0" height="76"/></clipPath><mask id="30856899cd"><g filter="url(#ab1c9f83f1)"><rect x="-168" width="2016" fill="#000000" y="-94.499999" height="1133.999992" fill-opacity="0.1"/></g></mask><clipPath id="a6316123b2"><path d="M 30 35 L 114 35 L 114 108 L 30 108 Z M 30 35 " clip-rule="nonzero"/></clipPath><clipPath id="365f8cd720"><path d="M 83.777344 1.066406 L 143.03125 69.804688 L 60.089844 141.300781 L 0.839844 72.5625 Z M 83.777344 1.066406 " clip-rule="nonzero"/></clipPath><clipPath id="61c91e7ecb"><path d="M 83.777344 1.066406 L 143.03125 69.804688 L 60.089844 141.300781 L 0.839844 72.5625 Z M 83.777344 1.066406 " clip-rule="nonzero"/></clipPath><clipPath id="847fd4ea0d"><path d="M 83.792969 1.085938 L 142.890625 69.644531 L 59.75 141.3125 L 0.652344 72.757812 Z M 83.792969 1.085938 " clip-rule="nonzero"/></clipPath><clipPath id="c0a29d0b9f"><rect x="0" width="144" y="0" height="142"/></clipPath></defs><g mask="url(#dc40b3f1ed)"><g transform="matrix(1, 0, 0, 1, 1504, 89)"><g clip-path="url(#6446b3d2ed)"><g clip-path="url(#249bbdd53d)"><g clip-path="url(#11e0d9d0dc)"><g clip-path="url(#a4e783c99a)"><g clip-path="url(#0aec5688a1)"><path fill="#191919" d="M 37.457031 110.667969 L 114.710938 129.261719 L 118.242188 49.878906 L 40.984375 31.289062 L 37.457031 110.667969 " fill-opacity="1" fill-rule="nonzero"/></g></g></g></g></g></g></g><g clip-path="url(#ad03b9e347)"><g clip-path="url(#562a0ecef7)"><g clip-path="url(#bd89a86947)"><g clip-path="url(#782d09559e)"><path fill="#191919" d="M 91.714844 818.042969 L 87.945312 893.664062 L 162.902344 882.953125 L 166.667969 807.332031 L 91.714844 818.042969 " fill-opacity="1" fill-rule="nonzero"/></g></g></g></g><g mask="url(#9bdb379c89)"><g transform="matrix(1, 0, 0, 1, 1140, 302)"><g clip-path="url(#f3129f8c56)"><g clip-path="url(#e08401e49c)"><g clip-path="url(#4b197d0d29)"><g clip-path="url(#cdca461a98)"><g clip-path="url(#26eaa862ea)"><path fill="#191919" d="M 41.753906 36.96875 L 29.730469 107.082031 L 100.851562 105.523438 L 112.875 35.410156 L 41.753906 36.96875 " fill-opacity="1" fill-rule="nonzero"/></g></g></g></g></g></g></g><g mask="url(#4817d02f56)"><g transform="matrix(1, 0, 0, 1, 1587, 850)"><g clip-path="url(#4a3389b743)"><g clip-path="url(#88cd0385ed)"><g clip-path="url(#03a4372a77)"><g clip-path="url(#31bfc32614)"><g clip-path="url(#eb38f970b5)"><path fill="#191919" d="M 41.902344 104.25 L 112.800781 107.382812 L 102.367188 37.183594 L 31.464844 34.050781 L 41.902344 104.25 " fill-opacity="1" fill-rule="nonzero"/></g></g></g></g></g></g></g><g mask="url(#7a5795f135)"><g transform="matrix(1, 0, 0, 1, 360, 626)"><g clip-path="url(#d1d83ff8f1)"><g clip-path="url(#9b65420ef8)"><g clip-path="url(#85b4df46bc)"><g clip-path="url(#0610fed863)"><g clip-path="url(#6a541d461a)"><path fill="#191919" d="M 97.925781 34.789062 L 29.121094 33.664062 L 41.128906 101.421875 L 109.929688 102.542969 L 97.925781 34.789062 " fill-opacity="1" fill-rule="nonzero"/></g></g></g></g></g></g></g><g mask="url(#faecf12e5c)"><g transform="matrix(1, 0, 0, 1, 1406, 595)"><g clip-path="url(#f6133fe313)"><g clip-path="url(#da7d8a3529)"><g clip-path="url(#5ff69e4569)"><g clip-path="url(#342cea0ba3)"><g clip-path="url(#bfb2efab49)"><path fill="#191919" d="M 99.679688 106.035156 L 114.578125 36.585938 L 43.558594 35.195312 L 28.664062 104.644531 L 99.679688 106.035156 " fill-opacity="1" fill-rule="nonzero"/></g></g></g></g></g></g></g><g clip-path="url(#452c6c02d2)"><g clip-path="url(#8fbec46fbd)"><g clip-path="url(#aa62fb626c)"><g clip-path="url(#36582ec4d8)"><path fill="#191919" d="M 345.042969 78.28125 L 273.917969 76.945312 L 286.160156 147.019531 L 357.285156 148.355469 L 345.042969 78.28125 " fill-opacity="1" fill-rule="nonzero"/></g></g></g></g><g mask="url(#013016cd57)"><g transform="matrix(1, 0, 0, 1, 514, 869)"><g clip-path="url(#8a46059d78)"><g clip-path="url(#7d5b06a178)"><g clip-path="url(#3f85b4ac18)"><g clip-path="url(#21a4487809)"><g clip-path="url(#6ee37d8c0d)"><path fill="#191919" d="M 39.960938 43.542969 L 36.191406 119.164062 L 111.148438 108.453125 L 114.914062 32.832031 L 39.960938 43.542969 " fill-opacity="1" fill-rule="nonzero"/></g></g></g></g></g></g></g><g mask="url(#30856899cd)"><g transform="matrix(1, 0, 0, 1, 1150, 677)"><g clip-path="url(#c0a29d0b9f)"><g clip-path="url(#a6316123b2)"><g clip-path="url(#365f8cd720)"><g clip-path="url(#61c91e7ecb)"><g clip-path="url(#847fd4ea0d)"><path fill="#191919" d="M 42.222656 36.921875 L 30.199219 107.035156 L 101.320312 105.476562 L 113.34375 35.363281 L 42.222656 36.921875 " fill-opacity="1" fill-rule="nonzero"/></g></g></g></g></g></g></g></svg>