<svg xmlns="http://www.w3.org/2000/svg" xmlns:xlink="http://www.w3.org/1999/xlink" width="2240" zoomAndPan="magnify" viewBox="0 0 1680 944.999993" height="1260" preserveAspectRatio="xMidYMid meet" version="1.0"><defs><filter x="0%" y="0%" width="100%" height="100%" id="1b7e4650b3"><feColorMatrix values="0 0 0 0 1 0 0 0 0 1 0 0 0 0 1 0 0 0 1 0" color-interpolation-filters="sRGB"/></filter><mask id="0f6753c022"><g filter="url(#1b7e4650b3)"><rect x="-168" width="2016" fill="#000000" y="-94.499999" height="1133.999992" fill-opacity="0.8"/></g></mask><clipPath id="89a564c0dc"><path d="M 36 29 L 113 29 L 113 123 L 36 123 Z M 36 29 " clip-rule="nonzero"/></clipPath><clipPath id="b8e4114854"><path d="M 0.863281 58.457031 L 78.171875 0.28125 L 148.519531 93.769531 L 71.214844 151.945312 Z M 0.863281 58.457031 " clip-rule="nonzero"/></clipPath><clipPath id="e311fea7b9"><path d="M 0.863281 58.457031 L 78.171875 0.28125 L 148.519531 93.769531 L 71.214844 151.945312 Z M 0.863281 58.457031 " clip-rule="nonzero"/></clipPath><clipPath id="fe97f9c764"><path d="M 0.882812 58.441406 L 77.863281 0.515625 L 148.113281 93.871094 L 71.132812 151.796875 Z M 0.882812 58.441406 " clip-rule="nonzero"/></clipPath><clipPath id="15b44aa14f"><rect x="0" width="149" y="0" height="152"/></clipPath><clipPath id="14017496b6"><path d="M 179 797 L 259 797 L 259 884 L 179 884 Z M 179 797 " clip-rule="nonzero"/></clipPath><clipPath id="f28a6920fb"><path d="M 222.945312 765.042969 L 294.433594 830.230469 L 215.601562 916.683594 L 144.109375 851.496094 Z M 222.945312 765.042969 " clip-rule="nonzero"/></clipPath><clipPath id="6838bfbde2"><path d="M 222.945312 765.042969 L 294.433594 830.230469 L 215.601562 916.683594 L 144.109375 851.496094 Z M 222.945312 765.042969 " clip-rule="nonzero"/></clipPath><clipPath id="9e95c96ef1"><path d="M 222.960938 765.058594 L 294.148438 829.96875 L 215.425781 916.300781 L 144.238281 851.390625 Z M 222.960938 765.058594 " clip-rule="nonzero"/></clipPath><mask id="c305593847"><g filter="url(#1b7e4650b3)"><rect x="-168" width="2016" fill="#000000" y="-94.499999" height="1133.999992" fill-opacity="0.6"/></g></mask><clipPath id="56c363f03f"><path d="M 32 37 L 121 37 L 121 114 L 32 114 Z M 32 37 " clip-rule="nonzero"/></clipPath><clipPath id="210897f544"><path d="M 89.285156 1.058594 L 152.457031 74.339844 L 63.839844 150.730469 L 0.667969 77.449219 Z M 89.285156 1.058594 " clip-rule="nonzero"/></clipPath><clipPath id="d2e5576b49"><path d="M 89.285156 1.058594 L 152.457031 74.339844 L 63.839844 150.730469 L 0.667969 77.449219 Z M 89.285156 1.058594 " clip-rule="nonzero"/></clipPath><clipPath id="315ba2f54e"><path d="M 89.304688 1.078125 L 152.203125 74.046875 L 63.710938 150.332031 L 0.808594 77.359375 Z M 89.304688 1.078125 " clip-rule="nonzero"/></clipPath><clipPath id="66e308c540"><rect x="0" width="153" y="0" height="151"/></clipPath><mask id="450eaedc06"><g filter="url(#1b7e4650b3)"><rect x="-168" width="2016" fill="#000000" y="-94.499999" height="1133.999992" fill-opacity="0.4"/></g></mask><clipPath id="d34c50d40a"><path d="M 28 31 L 104 31 L 104 99 L 28 99 Z M 28 31 " clip-rule="nonzero"/></clipPath><clipPath id="389dadc458"><path d="M 1.15625 61.886719 L 56.398438 0.613281 L 131.039062 67.90625 L 75.796875 129.183594 Z M 1.15625 61.886719 " clip-rule="nonzero"/></clipPath><clipPath id="c05e3cc711"><path d="M 1.15625 61.886719 L 56.398438 0.613281 L 131.039062 67.90625 L 75.796875 129.183594 Z M 1.15625 61.886719 " clip-rule="nonzero"/></clipPath><clipPath id="5cfc6a8e4d"><path d="M 1.171875 61.871094 L 56.453125 0.550781 L 130.816406 67.59375 L 75.535156 128.914062 Z M 1.171875 61.871094 " clip-rule="nonzero"/></clipPath><clipPath id="3cd47bf508"><rect x="0" width="132" y="0" height="130"/></clipPath><mask id="84fdcf271a"><g filter="url(#1b7e4650b3)"><rect x="-168" width="2016" fill="#000000" y="-94.499999" height="1133.999992" fill-opacity="0.15"/></g></mask><clipPath id="2a24930103"><path d="M 32 37 L 122 37 L 122 114 L 32 114 Z M 32 37 " clip-rule="nonzero"/></clipPath><clipPath id="b270487794"><path d="M 152.382812 76.617188 L 89.621094 150.25 L 0.578125 74.351562 L 63.339844 0.71875 Z M 152.382812 76.617188 " clip-rule="nonzero"/></clipPath><clipPath id="51814db942"><path d="M 152.382812 76.617188 L 89.621094 150.25 L 0.578125 74.351562 L 63.339844 0.71875 Z M 152.382812 76.617188 " clip-rule="nonzero"/></clipPath><clipPath id="e011408dd3"><path d="M 152.367188 76.636719 L 89.871094 149.953125 L 0.953125 74.164062 L 63.449219 0.84375 Z M 152.367188 76.636719 " clip-rule="nonzero"/></clipPath><clipPath id="7718dcd7f3"><rect x="0" width="153" y="0" height="151"/></clipPath><mask id="e8bfb0b4ca"><g filter="url(#1b7e4650b3)"><rect x="-168" width="2016" fill="#000000" y="-94.499999" height="1133.999992" fill-opacity="0.25"/></g></mask><clipPath id="d14c31d150"><path d="M 30 36 L 123 36 L 123 113 L 30 113 Z M 30 36 " clip-rule="nonzero"/></clipPath><clipPath id="67425f8f26"><path d="M 60.558594 148.636719 L 0.484375 72.800781 L 92.195312 0.148438 L 152.269531 75.988281 Z M 60.558594 148.636719 " clip-rule="nonzero"/></clipPath><clipPath id="f08e3e1c13"><path d="M 60.558594 148.636719 L 0.484375 72.800781 L 92.195312 0.148438 L 152.269531 75.988281 Z M 60.558594 148.636719 " clip-rule="nonzero"/></clipPath><clipPath id="e96ed85134"><path d="M 60.542969 148.617188 L 0.722656 73.105469 L 92.304688 0.554688 L 152.125 76.070312 Z M 60.542969 148.617188 " clip-rule="nonzero"/></clipPath><clipPath id="5b3435ad90"><rect x="0" width="153" y="0" height="149"/></clipPath></defs><g mask="url(#0f6753c022)"><g transform="matrix(1, 0, 0, 1, 1511, 94)"><g clip-path="url(#15b44aa14f)"><g clip-path="url(#89a564c0dc)"><g clip-path="url(#b8e4114854)"><g clip-path="url(#e311fea7b9)"><g clip-path="url(#fe97f9c764)"><path fill="#191919" d="M 36.007812 105.117188 L 109.621094 122.835938 L 112.988281 47.191406 L 39.371094 29.476562 L 36.007812 105.117188 " fill-opacity="1" fill-rule="nonzero"/></g></g></g></g></g></g></g><g clip-path="url(#14017496b6)"><g clip-path="url(#f28a6920fb)"><g clip-path="url(#6838bfbde2)"><g clip-path="url(#9e95c96ef1)"><path fill="#191919" d="M 183.601562 808.222656 L 179.832031 883.847656 L 254.789062 873.136719 L 258.554688 797.511719 L 183.601562 808.222656 " fill-opacity="1" fill-rule="nonzero"/></g></g></g></g><g mask="url(#c305593847)"><g transform="matrix(1, 0, 0, 1, 876, 312)"><g clip-path="url(#66e308c540)"><g clip-path="url(#56c363f03f)"><g clip-path="url(#210897f544)"><g clip-path="url(#d2e5576b49)"><g clip-path="url(#315ba2f54e)"><path fill="#191919" d="M 45.054688 39.21875 L 32.257812 113.847656 L 107.957031 112.1875 L 120.753906 37.5625 L 45.054688 39.21875 " fill-opacity="1" fill-rule="nonzero"/></g></g></g></g></g></g></g><g mask="url(#450eaedc06)"><g transform="matrix(1, 0, 0, 1, 1485, 750)"><g clip-path="url(#3cd47bf508)"><g clip-path="url(#d34c50d40a)"><g clip-path="url(#389dadc458)"><g clip-path="url(#c05e3cc711)"><g clip-path="url(#5cfc6a8e4d)"><path fill="#191919" d="M 38.351562 95.390625 L 103.175781 98.253906 L 93.632812 34.074219 L 28.808594 31.210938 L 38.351562 95.390625 " fill-opacity="1" fill-rule="nonzero"/></g></g></g></g></g></g></g><g mask="url(#84fdcf271a)"><g transform="matrix(1, 0, 0, 1, 372, 614)"><g clip-path="url(#7718dcd7f3)"><g clip-path="url(#2a24930103)"><g clip-path="url(#b270487794)"><g clip-path="url(#51814db942)"><g clip-path="url(#e011408dd3)"><path fill="#191919" d="M 107.90625 38.742188 L 32.203125 37.503906 L 45.414062 112.058594 L 121.117188 113.296875 L 107.90625 38.742188 " fill-opacity="1" fill-rule="nonzero"/></g></g></g></g></g></g></g><g mask="url(#e8bfb0b4ca)"><g transform="matrix(1, 0, 0, 1, 1225, 494)"><g clip-path="url(#5b3435ad90)"><g clip-path="url(#d14c31d150)"><g clip-path="url(#67425f8f26)"><g clip-path="url(#f08e3e1c13)"><g clip-path="url(#e96ed85134)"><path fill="#191919" d="M 106.335938 112.34375 L 122.214844 38.3125 L 46.511719 36.828125 L 30.632812 110.863281 L 106.335938 112.34375 " fill-opacity="1" fill-rule="nonzero"/></g></g></g></g></g></g></g></svg>