<svg xmlns="http://www.w3.org/2000/svg" xmlns:xlink="http://www.w3.org/1999/xlink" width="500" zoomAndPan="magnify" viewBox="0 0 375 374.999991" height="500" preserveAspectRatio="xMidYMid meet" version="1.0"><defs><clipPath id="2dcd9c0a00"><path d="M 26.480469 26.207031 L 349.0625 26.207031 L 349.0625 348.792969 L 26.480469 348.792969 Z M 26.480469 26.207031 " clip-rule="nonzero"/></clipPath><clipPath id="08b5b4ee62"><path d="M 187.769531 26.207031 C 98.691406 26.207031 26.480469 98.421875 26.480469 187.5 C 26.480469 276.578125 98.691406 348.792969 187.769531 348.792969 C 276.847656 348.792969 349.0625 276.578125 349.0625 187.5 C 349.0625 98.421875 276.847656 26.207031 187.769531 26.207031 Z M 187.769531 26.207031 " clip-rule="nonzero"/></clipPath><clipPath id="f766dec632"><path d="M 41.507812 41.238281 L 334.03125 41.238281 L 334.03125 333.761719 L 41.507812 333.761719 Z M 41.507812 41.238281 " clip-rule="nonzero"/></clipPath><clipPath id="ac4d3d3eed"><path d="M 187.769531 41.238281 C 106.992188 41.238281 41.507812 106.722656 41.507812 187.5 C 41.507812 268.277344 106.992188 333.761719 187.769531 333.761719 C 268.550781 333.761719 334.03125 268.277344 334.03125 187.5 C 334.03125 106.722656 268.550781 41.238281 187.769531 41.238281 Z M 187.769531 41.238281 " clip-rule="nonzero"/></clipPath><clipPath id="c47803b565"><path d="M 153 84 L 278 84 L 278 210 L 153 210 Z M 153 84 " clip-rule="nonzero"/></clipPath><clipPath id="a5aced73c3"><path d="M 266.144531 84.464844 L 277.691406 96.011719 L 164.652344 209.050781 L 153.101562 197.503906 Z M 266.144531 84.464844 " clip-rule="nonzero"/></clipPath><clipPath id="1bd4f369ef"><path d="M 160 193 L 258 193 L 258 295 L 160 295 Z M 160 193 " clip-rule="nonzero"/></clipPath><clipPath id="b3cc3078a9"><path d="M 257.8125 283.753906 L 245.953125 294.988281 L 160.304688 204.582031 L 172.160156 193.347656 Z M 257.8125 283.753906 " clip-rule="nonzero"/></clipPath><clipPath id="d9ebc35506"><path d="M 104 76 L 198 76 L 198 174 L 104 174 Z M 104 76 " clip-rule="nonzero"/></clipPath><clipPath id="ad69b71894"><path d="M 197.699219 162.246094 L 186.035156 173.292969 L 104.738281 87.484375 L 116.402344 76.433594 Z M 197.699219 162.246094 " clip-rule="nonzero"/></clipPath><clipPath id="7a84e3d1c9"><path d="M 102 63 L 137 63 L 137 98 L 102 98 Z M 102 63 " clip-rule="nonzero"/></clipPath><clipPath id="7c05ac229a"><path d="M 106.84375 105.304688 L 98.347656 70.980469 L 128.339844 63.558594 L 136.832031 97.882812 Z M 106.84375 105.304688 " clip-rule="nonzero"/></clipPath><clipPath id="0c0b574097"><path d="M 102.601562 88.167969 L 128.351562 63.609375 L 136.832031 97.882812 Z M 102.601562 88.167969 " clip-rule="nonzero"/></clipPath><clipPath id="6958c4c64e"><path d="M 119 97 L 141 97 L 141 295 L 119 295 Z M 119 97 " clip-rule="nonzero"/></clipPath><clipPath id="5630a3d6cf"><path d="M 140.695312 294.597656 L 124.632812 294.984375 L 119.886719 98.136719 L 135.949219 97.75 Z M 140.695312 294.597656 " clip-rule="nonzero"/></clipPath><clipPath id="e42943f641"><path d="M 105 265 L 141 265 L 141 297 L 105 297 Z M 105 265 " clip-rule="nonzero"/></clipPath><clipPath id="8353713711"><path d="M 113.832031 311.378906 L 96.363281 280.636719 L 123.226562 265.375 L 140.695312 296.117188 Z M 113.832031 311.378906 " clip-rule="nonzero"/></clipPath><clipPath id="55bb24b56a"><path d="M 105.109375 296.03125 L 123.25 265.417969 L 140.695312 296.117188 Z M 105.109375 296.03125 " clip-rule="nonzero"/></clipPath><clipPath id="8b11ab499d"><path d="M 201 178 L 287 178 L 287 268 L 201 268 Z M 201 178 " clip-rule="nonzero"/></clipPath><clipPath id="7144899e54"><path d="M 286.601562 256.085938 L 274.9375 267.136719 L 201.351562 189.460938 L 213.011719 178.410156 Z M 286.601562 256.085938 " clip-rule="nonzero"/></clipPath><clipPath id="0e64e56ee4"><path d="M 240 69 L 280 69 L 280 109 L 240 109 Z M 240 69 " clip-rule="nonzero"/></clipPath><clipPath id="306cf7f714"><path d="M 254.289062 122.515625 L 226.839844 95.066406 L 252.117188 69.792969 L 279.5625 97.242188 Z M 254.289062 122.515625 " clip-rule="nonzero"/></clipPath><clipPath id="2dcd05b94c"><path d="M 240.605469 108.832031 L 252.199219 69.875 L 279.5625 97.242188 Z M 240.605469 108.832031 " clip-rule="nonzero"/></clipPath><clipPath id="1b394f960c"><path d="M 267 228 L 305 228 L 305 269 L 267 269 Z M 267 228 " clip-rule="nonzero"/></clipPath><clipPath id="b318c795ed"><path d="M 293.15625 274.0625 L 256.253906 262.027344 L 267.335938 228.046875 L 304.238281 240.082031 Z M 293.15625 274.0625 " clip-rule="nonzero"/></clipPath><clipPath id="46b6f65f87"><path d="M 274.761719 268.066406 L 267.449219 228.082031 L 304.238281 240.082031 Z M 274.761719 268.066406 " clip-rule="nonzero"/></clipPath><clipPath id="480511bbe4"><path d="M 238 255 L 275 255 L 275 296 L 238 296 Z M 238 255 " clip-rule="nonzero"/></clipPath><clipPath id="cb207ea422"><path d="M 263.714844 301.832031 L 226.808594 289.796875 L 237.894531 255.816406 L 274.796875 267.851562 Z M 263.714844 301.832031 " clip-rule="nonzero"/></clipPath><clipPath id="89a1c1d00a"><path d="M 245.316406 295.832031 L 238.003906 255.851562 L 274.796875 267.851562 Z M 245.316406 295.832031 " clip-rule="nonzero"/></clipPath></defs><rect x="-37.5" width="450" fill="#ffffff" y="-37.499999" height="449.999989" fill-opacity="1"/><rect x="-37.5" width="450" fill="#ffffff" y="-37.499999" height="449.999989" fill-opacity="1"/><g clip-path="url(#2dcd9c0a00)"><g clip-path="url(#08b5b4ee62)"><path fill="#0a192f" d="M 26.480469 26.207031 L 349.0625 26.207031 L 349.0625 348.792969 L 26.480469 348.792969 Z M 26.480469 26.207031 " fill-opacity="1" fill-rule="nonzero"/></g></g><g clip-path="url(#f766dec632)"><g clip-path="url(#ac4d3d3eed)"><path fill="#ffffff" d="M 41.507812 41.238281 L 334.03125 41.238281 L 334.03125 333.761719 L 41.507812 333.761719 Z M 41.507812 41.238281 " fill-opacity="1" fill-rule="nonzero"/></g></g><g clip-path="url(#c47803b565)"><g clip-path="url(#a5aced73c3)"><path fill="#0a192f" d="M 266.144531 84.464844 L 277.691406 96.011719 L 164.640625 209.0625 L 153.089844 197.515625 Z M 266.144531 84.464844 " fill-opacity="1" fill-rule="nonzero"/></g></g><g clip-path="url(#1bd4f369ef)"><g clip-path="url(#b3cc3078a9)"><path fill="#0a192f" d="M 257.8125 283.753906 L 245.953125 294.988281 L 160.292969 204.570312 L 172.152344 193.335938 Z M 257.8125 283.753906 " fill-opacity="1" fill-rule="nonzero"/></g></g><g clip-path="url(#d9ebc35506)"><g clip-path="url(#ad69b71894)"><path fill="#0a192f" d="M 197.699219 162.246094 L 186.035156 173.292969 L 104.71875 87.460938 L 116.378906 76.410156 Z M 197.699219 162.246094 " fill-opacity="1" fill-rule="nonzero"/></g></g><g clip-path="url(#7a84e3d1c9)"><g clip-path="url(#7c05ac229a)"><g clip-path="url(#0c0b574097)"><path fill="#ffffff" d="M 106.84375 105.304688 L 98.347656 70.980469 L 128.339844 63.558594 L 136.832031 97.882812 Z M 106.84375 105.304688 " fill-opacity="1" fill-rule="nonzero"/></g></g></g><g clip-path="url(#6958c4c64e)"><g clip-path="url(#5630a3d6cf)"><path fill="#0a192f" d="M 140.695312 294.597656 L 124.632812 294.984375 L 119.886719 98.167969 L 135.949219 97.78125 Z M 140.695312 294.597656 " fill-opacity="1" fill-rule="nonzero"/></g></g><g clip-path="url(#e42943f641)"><g clip-path="url(#8353713711)"><g clip-path="url(#55bb24b56a)"><path fill="#ffffff" d="M 113.832031 311.378906 L 96.363281 280.636719 L 123.226562 265.375 L 140.695312 296.117188 Z M 113.832031 311.378906 " fill-opacity="1" fill-rule="nonzero"/></g></g></g><g clip-path="url(#8b11ab499d)"><g clip-path="url(#7144899e54)"><path fill="#0a192f" d="M 286.601562 256.085938 L 274.9375 267.136719 L 201.347656 189.457031 L 213.011719 178.410156 Z M 286.601562 256.085938 " fill-opacity="1" fill-rule="nonzero"/></g></g><g clip-path="url(#0e64e56ee4)"><g clip-path="url(#306cf7f714)"><g clip-path="url(#2dcd05b94c)"><path fill="#ffffff" d="M 254.289062 122.515625 L 226.9375 95.167969 L 252.214844 69.890625 L 279.5625 97.242188 Z M 254.289062 122.515625 " fill-opacity="1" fill-rule="nonzero"/></g></g></g><g clip-path="url(#1b394f960c)"><g clip-path="url(#b318c795ed)"><g clip-path="url(#46b6f65f87)"><path fill="#ffffff" d="M 293.15625 274.0625 L 256.386719 262.074219 L 267.46875 228.089844 L 304.238281 240.082031 Z M 293.15625 274.0625 " fill-opacity="1" fill-rule="nonzero"/></g></g></g><g clip-path="url(#480511bbe4)"><g clip-path="url(#cb207ea422)"><g clip-path="url(#89a1c1d00a)"><path fill="#ffffff" d="M 263.714844 301.832031 L 226.941406 289.839844 L 238.027344 255.859375 L 274.796875 267.851562 Z M 263.714844 301.832031 " fill-opacity="1" fill-rule="nonzero"/></g></g></g></svg>