<svg xmlns="http://www.w3.org/2000/svg" xmlns:xlink="http://www.w3.org/1999/xlink" width="500" zoomAndPan="magnify" viewBox="0 0 375 374.999991" height="500" preserveAspectRatio="xMidYMid meet" version="1.0"><defs><clipPath id="6070c0bb08"><path d="M 194 179 L 338 179 L 338 323 L 194 323 Z M 194 179 " clip-rule="nonzero"/></clipPath><clipPath id="c4d02c661f"><path d="M 337.488281 308.722656 L 323.652344 322.558594 L 194.800781 193.707031 L 208.636719 179.871094 Z M 337.488281 308.722656 " clip-rule="nonzero"/></clipPath><clipPath id="b610877e1e"><path d="M 127 25 L 291 25 L 291 189 L 127 189 Z M 127 25 " clip-rule="nonzero"/></clipPath><clipPath id="3b3040307e"><path d="M 276.765625 25.253906 L 290.601562 39.089844 L 141.289062 188.402344 L 127.453125 174.566406 Z M 276.765625 25.253906 " clip-rule="nonzero"/></clipPath><clipPath id="60ec80f632"><path d="M 127 160 L 314 160 L 314 347 L 127 347 Z M 127 160 " clip-rule="nonzero"/></clipPath><clipPath id="c4a02988a2"><path d="M 313.558594 332.96875 L 299.726562 346.800781 L 127.445312 174.523438 L 141.28125 160.6875 Z M 313.558594 332.96875 " clip-rule="nonzero"/></clipPath><clipPath id="f50a29b656"><path d="M 49 311 L 68 311 L 68 348 L 49 348 Z M 49 311 " clip-rule="nonzero"/></clipPath><clipPath id="c588b14832"><path d="M 49.253906 316.207031 L 62.042969 311.636719 L 74.035156 345.207031 L 61.246094 349.773438 Z M 49.253906 316.207031 " clip-rule="nonzero"/></clipPath><clipPath id="acb0a12541"><path d="M 67.628906 347.464844 L 62.042969 311.636719 L 49.253906 316.207031 Z M 67.628906 347.464844 " clip-rule="nonzero"/></clipPath><clipPath id="eb030e1738"><path d="M 54 310 L 68 310 L 68 347 L 54 347 Z M 54 310 " clip-rule="nonzero"/></clipPath><clipPath id="08dc670ef4"><path d="M 54.28125 312.957031 L 67.289062 310.453125 L 74.027344 345.457031 L 61.023438 347.960938 Z M 54.28125 312.957031 " clip-rule="nonzero"/></clipPath><clipPath id="7ca0135a37"><path d="M 67.519531 346.679688 L 67.289062 310.453125 L 54.28125 312.957031 Z M 67.519531 346.679688 " clip-rule="nonzero"/></clipPath><clipPath id="5fe6098556"><path d="M 41 39 L 69 39 L 69 53 L 41 53 Z M 41 39 " clip-rule="nonzero"/></clipPath><clipPath id="64d704830a"><path d="M 68.542969 39.585938 L 65.558594 52.464844 L 39.5 46.429688 L 42.484375 33.550781 Z M 68.542969 39.585938 " clip-rule="nonzero"/></clipPath><clipPath id="3fe39da171"><path d="M 41.039062 40 L 65.558594 52.464844 L 68.542969 39.585938 Z M 41.039062 40 " clip-rule="nonzero"/></clipPath><clipPath id="e17fc2242c"><path d="M 40 40 L 69 40 L 69 60 L 40 60 Z M 40 40 " clip-rule="nonzero"/></clipPath><clipPath id="b77df11c3f"><path d="M 68.546875 48.550781 L 61.875 59.964844 L 37.484375 45.710938 L 44.15625 34.296875 Z M 68.546875 48.550781 " clip-rule="nonzero"/></clipPath><clipPath id="9c3b302311"><path d="M 40.832031 40.011719 L 61.875 59.964844 L 68.546875 48.550781 Z M 40.832031 40.011719 " clip-rule="nonzero"/></clipPath><clipPath id="354a2e7bb5"><path d="M 54 39 L 170 39 L 170 155 L 54 155 Z M 54 39 " clip-rule="nonzero"/></clipPath><clipPath id="30ee122346"><path d="M 169.261719 140.5 L 155.425781 154.335938 L 54.273438 53.183594 L 68.109375 39.347656 Z M 169.261719 140.5 " clip-rule="nonzero"/></clipPath><clipPath id="ee9747e959"><path d="M 49.253906 47.128906 L 67.359375 47.128906 L 67.359375 316.140625 L 49.253906 316.140625 Z M 49.253906 47.128906 " clip-rule="nonzero"/></clipPath></defs><g clip-path="url(#6070c0bb08)"><g clip-path="url(#c4d02c661f)"><path fill="#5b5a5d" d="M 337.488281 308.722656 L 323.652344 322.558594 L 194.808594 193.714844 L 208.644531 179.878906 Z M 337.488281 308.722656 " fill-opacity="1" fill-rule="nonzero"/></g></g><g clip-path="url(#b610877e1e)"><g clip-path="url(#3b3040307e)"><path fill="#5b5a5d" d="M 276.765625 25.253906 L 290.601562 39.089844 L 141.273438 188.414062 L 127.4375 174.582031 Z M 276.765625 25.253906 " fill-opacity="1" fill-rule="nonzero"/></g></g><g clip-path="url(#60ec80f632)"><g clip-path="url(#c4a02988a2)"><path fill="#5b5a5d" d="M 313.558594 332.96875 L 299.726562 346.800781 L 127.429688 174.507812 L 141.265625 160.671875 Z M 313.558594 332.96875 " fill-opacity="1" fill-rule="nonzero"/></g></g><g clip-path="url(#f50a29b656)"><g clip-path="url(#c588b14832)"><g clip-path="url(#acb0a12541)"><path fill="#5b5a5d" d="M 49.253906 316.207031 L 62.042969 311.636719 L 74.015625 345.15625 L 61.226562 349.726562 Z M 49.253906 316.207031 " fill-opacity="1" fill-rule="nonzero"/></g></g></g><g clip-path="url(#eb030e1738)"><g clip-path="url(#08dc670ef4)"><g clip-path="url(#7ca0135a37)"><path fill="#5b5a5d" d="M 54.28125 312.957031 L 67.289062 310.453125 L 74.019531 345.40625 L 61.015625 347.910156 Z M 54.28125 312.957031 " fill-opacity="1" fill-rule="nonzero"/></g></g></g><g clip-path="url(#5fe6098556)"><g clip-path="url(#64d704830a)"><g clip-path="url(#3fe39da171)"><path fill="#5b5a5d" d="M 68.542969 39.585938 L 65.558594 52.464844 L 39.550781 46.441406 L 42.535156 33.5625 Z M 68.542969 39.585938 " fill-opacity="1" fill-rule="nonzero"/></g></g></g><g clip-path="url(#e17fc2242c)"><g clip-path="url(#b77df11c3f)"><g clip-path="url(#9c3b302311)"><path fill="#5b5a5d" d="M 68.546875 48.550781 L 61.875 59.964844 L 37.484375 45.710938 L 44.15625 34.296875 Z M 68.546875 48.550781 " fill-opacity="1" fill-rule="nonzero"/></g></g></g><g clip-path="url(#354a2e7bb5)"><g clip-path="url(#30ee122346)"><path fill="#5b5a5d" d="M 169.261719 140.5 L 155.425781 154.335938 L 54.253906 53.164062 L 68.089844 39.328125 Z M 169.261719 140.5 " fill-opacity="1" fill-rule="nonzero"/></g></g><g clip-path="url(#ee9747e959)"><path fill="#5b5a5d" d="M 67.359375 316.140625 L 49.253906 316.140625 L 49.253906 47.144531 L 67.359375 47.144531 Z M 67.359375 316.140625 " fill-opacity="1" fill-rule="nonzero"/></g></svg>